<svg width="18" height="18" viewBox="0 0 18 18" fill="none" xmlns="http://www.w3.org/2000/svg">
<g id="Frame">
<path id="Vector" d="M16.4375 8.99984C16.4379 9.18022 16.3917 9.35764 16.3033 9.51485C16.2148 9.67206 16.0872 9.80371 15.9328 9.89699L6.365 15.75C6.20369 15.8488 6.01894 15.9027 5.82982 15.9062C5.6407 15.9097 5.45408 15.8627 5.28922 15.77C5.12593 15.6787 4.98991 15.5455 4.89514 15.3842C4.80037 15.2229 4.75027 15.0393 4.75 14.8522V3.14746C4.75027 2.96038 4.80037 2.77676 4.89514 2.61546C4.98991 2.45417 5.12593 2.32102 5.28922 2.22973C5.45408 2.13699 5.6407 2.08994 5.82982 2.09344C6.01894 2.09695 6.20369 2.15087 6.365 2.24965L15.9328 8.10269C16.0872 8.19598 16.2148 8.32763 16.3033 8.48483C16.3917 8.64204 16.4379 8.81947 16.4375 8.99984Z" fill="#222733"/>
</g>
</svg>
