<svg width="20" height="20" viewBox="0 0 20 20" fill="none" xmlns="http://www.w3.org/2000/svg">
<g id="menu_book_FILL1_wght700_GRAD200_opsz48 1" clip-path="url(#clip0_445_6474)">
<path id="Vector" d="M11.5981 8.6602V7.7002C12.0381 7.52953 12.4881 7.39353 12.9481 7.2922C13.4081 7.19086 13.8914 7.1402 14.3981 7.1402C14.7447 7.1402 15.0847 7.16686 15.4181 7.2202C15.7514 7.27353 16.0781 7.3402 16.3981 7.4202V8.3002C16.0781 8.1802 15.7547 8.0902 15.4281 8.0302C15.1014 7.9702 14.7581 7.9402 14.3981 7.9402C13.8914 7.9402 13.4047 8.00353 12.9381 8.1302C12.4714 8.25686 12.0247 8.43353 11.5981 8.6602ZM11.5981 13.0602V12.0802C12.0381 11.9162 12.4881 11.7852 12.9481 11.6872C13.4081 11.5892 13.8914 11.5402 14.3981 11.5402C14.7447 11.5402 15.0847 11.5669 15.4181 11.6202C15.7514 11.6735 16.0781 11.7402 16.3981 11.8202V12.7002C16.0781 12.5802 15.7547 12.4902 15.4281 12.4302C15.1014 12.3702 14.7581 12.3402 14.3981 12.3402C13.8914 12.3402 13.4047 12.4002 12.9381 12.5202C12.4714 12.6402 12.0247 12.8202 11.5981 13.0602ZM11.5981 10.8602V9.9002C12.0381 9.72953 12.4881 9.59353 12.9481 9.4922C13.4081 9.39086 13.8914 9.3402 14.3981 9.3402C14.7447 9.3402 15.0847 9.36686 15.4181 9.4202C15.7514 9.47353 16.0781 9.5402 16.3981 9.6202V10.5002C16.0781 10.3802 15.7547 10.2902 15.4281 10.2302C15.1014 10.1702 14.7581 10.1402 14.3981 10.1402C13.8914 10.1402 13.4047 10.2035 12.9381 10.3302C12.4714 10.4569 12.0247 10.6335 11.5981 10.8602ZM10.6181 15.1402C11.285 14.8069 11.9401 14.5569 12.5835 14.3902C13.2269 14.2235 13.9104 14.1402 14.634 14.1402C15.1434 14.1402 15.6681 14.1802 16.2081 14.2602C16.7481 14.3402 17.2047 14.4469 17.5781 14.5802V5.99816C17.1247 5.75952 16.6493 5.59353 16.1516 5.5002C15.654 5.40686 15.1481 5.3602 14.634 5.3602C13.9104 5.3602 13.2102 5.4702 12.5333 5.6902C11.8565 5.9102 11.2181 6.2185 10.6181 6.6151V15.1402ZM10.0817 17.4402C9.39175 16.9462 8.65004 16.546 7.85652 16.2397C7.063 15.9334 6.23018 15.7802 5.35808 15.7802C4.91222 15.7802 4.4722 15.8432 4.03802 15.9692C3.60382 16.0953 3.1705 16.2256 2.73808 16.3602C2.30541 16.5869 1.87058 16.5791 1.43358 16.337C0.996576 16.0949 0.778076 15.7026 0.778076 15.1602V5.96636C0.778076 5.64225 0.85141 5.33553 0.998076 5.0462C1.14474 4.75686 1.36474 4.54153 1.65808 4.4002C2.25808 4.1602 2.86165 3.98353 3.4688 3.8702C4.07594 3.75686 4.6931 3.7002 5.32028 3.7002C6.163 3.7002 6.98664 3.81686 7.79122 4.0502C8.59579 4.28353 9.34474 4.64686 10.0381 5.1402C10.7314 4.6602 11.4671 4.3002 12.2452 4.0602C13.0233 3.8202 13.835 3.7002 14.6803 3.7002C15.3088 3.7002 15.9223 3.7602 16.5206 3.8802C17.1189 4.0002 17.7193 4.17591 18.3219 4.40734C18.6127 4.54391 18.8347 4.75686 18.9881 5.0462C19.1414 5.33553 19.2181 5.64686 19.2181 5.9802V15.3802C19.2181 15.8727 18.9959 16.2258 18.5516 16.4396C18.1072 16.6533 17.6694 16.6269 17.2381 16.3602C16.819 16.2123 16.3917 16.0786 15.9562 15.9592C15.5207 15.8399 15.0794 15.7802 14.6322 15.7802C13.8024 15.7802 13.0072 15.94 12.2464 16.2597C11.4856 16.5794 10.764 16.9729 10.0817 17.4402Z" fill="#545E76"/>
</g>
<defs>
<clipPath id="clip0_445_6474">
<rect width="19.2" height="19.2" fill="white" transform="translate(0.39917 0.399902)"/>
</clipPath>
</defs>
</svg>
