<svg width="20" height="20" viewBox="0 0 20 20" fill="none" xmlns="http://www.w3.org/2000/svg">
<g id="Frame">
<path id="Vector" d="M17.7982 6.40049H15.3562C15.8844 7.31576 16.0959 8.37978 15.9577 9.42747C15.8195 10.4752 15.3394 11.448 14.5919 12.195C13.9529 12.8467 13.1212 13.464 12.2032 14.0332C12.1457 14.0682 12.0782 14.0829 12.0114 14.0748C11.9446 14.0668 11.8825 14.0366 11.8349 13.989L9.22195 11.376C9.16511 11.3191 9.09743 11.2743 9.02292 11.2441C8.94841 11.2139 8.8686 11.199 8.78822 11.2003C8.70783 11.2015 8.62852 11.2189 8.555 11.2514C8.48147 11.2839 8.41523 11.3309 8.3602 11.3895C8.25431 11.5083 8.1984 11.6634 8.20413 11.8224C8.20986 11.9815 8.27679 12.1321 8.39095 12.243L10.6319 14.484C10.6654 14.5174 10.6905 14.5583 10.7052 14.6032C10.7199 14.6482 10.7237 14.696 10.7164 14.7427C10.7091 14.7894 10.6908 14.8338 10.6631 14.8721C10.6354 14.9104 10.599 14.9417 10.5569 14.9632C7.5787 16.5097 4.3732 17.541 3.9067 17.6865C3.68354 17.7905 3.4338 17.8233 3.19136 17.7805C2.94892 17.7377 2.72551 17.6213 2.55142 17.4473C2.37734 17.2732 2.26102 17.0498 2.21822 16.8073C2.17543 16.5649 2.20824 16.3152 2.3122 16.092C2.51695 15.4387 4.4872 9.32174 7.1767 6.09074C7.20343 6.05877 7.23652 6.03272 7.27388 6.01425C7.31123 5.99578 7.35202 5.98529 7.39365 5.98345C7.43528 5.98162 7.47684 5.98848 7.51567 6.00359C7.5545 6.01871 7.58976 6.04175 7.6192 6.07124L10.7729 9.22574C10.8313 9.28404 10.901 9.32968 10.9778 9.35983C11.0545 9.38997 11.1367 9.40397 11.2191 9.40094C11.3015 9.39792 11.3824 9.37793 11.4568 9.34224C11.5311 9.30655 11.5973 9.25591 11.6512 9.19349C11.7498 9.0745 11.7999 8.92273 11.7916 8.76844C11.7832 8.61414 11.717 8.46866 11.6062 8.36099L8.5042 5.25899C8.47257 5.22749 8.44836 5.18933 8.43335 5.14729C8.41834 5.10525 8.4129 5.0604 8.41743 5.01599C8.42196 4.97158 8.43634 4.92874 8.45952 4.89059C8.48271 4.85245 8.51411 4.81996 8.55145 4.79549C9.2956 4.30428 10.1619 4.03005 11.0531 4.00356C11.9444 3.97706 12.8254 4.19935 13.5974 4.64549V2.20049C13.5973 2.11817 13.614 2.03669 13.6467 1.96112C13.6793 1.88556 13.7272 1.81752 13.7873 1.76124C13.8473 1.70496 13.9183 1.66165 13.9959 1.63399C14.0734 1.60634 14.1558 1.59493 14.2379 1.60049C14.3926 1.61394 14.5363 1.68549 14.6403 1.80072C14.7443 1.91596 14.8007 2.06631 14.7982 2.22149V4.35224L16.7737 2.37599C16.8294 2.32024 16.8956 2.27602 16.9685 2.24585C17.0413 2.21568 17.1194 2.20016 17.1982 2.20016C17.277 2.20016 17.3551 2.21568 17.4279 2.24585C17.5008 2.27602 17.567 2.32024 17.6227 2.37599C17.6784 2.43174 17.7227 2.49792 17.7528 2.57075C17.783 2.64359 17.7985 2.72165 17.7985 2.80049C17.7985 2.87933 17.783 2.95739 17.7528 3.03023C17.7227 3.10306 17.6784 3.16924 17.6227 3.22499L15.6464 5.20049H17.7772C17.9324 5.19801 18.0827 5.25443 18.198 5.35839C18.3132 5.46235 18.3847 5.60613 18.3982 5.76074C18.4036 5.84281 18.3922 5.92513 18.3645 6.00258C18.3368 6.08002 18.2934 6.15095 18.2372 6.21094C18.1809 6.27094 18.1129 6.31872 18.0374 6.35133C17.9619 6.38394 17.8805 6.40067 17.7982 6.40049Z" fill="#545E76"/>
</g>
</svg>
